#!OML:ASF E:/inclinewalkrobotboard/Project1/Captureday1/Session1/subject1.ASF
:FULLY-SPECIFIED
:DEGREES
163
root 0 0 0 1.2088134093353893 -3.6329003080525313 1.8038957508893494
lowerback 11.908556543478978 0.8750726090809684 -0.04698680814826284
upperback -4.28405194341827 1.1077383194694006 -0.5622311306767207
thorax -11.353802379930059 0.5071376877347311 -0.81934731108945
lowerneck -6.1676154533415275 1.5336847129170117 4.502068140215105
upperneck 18.28991554003071 2.9986243794388576 -8.151137445424515
head 6.737283250069304 1.0960174219533991 -3.1469930616011204
rclavicle 1.1897965086603365E-15 -1.1995151947265318E-15
rhumerus 19.29225324238785 13.9072570840761 -48.432523437030476
rradius 71.67114573939426
rwrist 26.695895948444488
rhand -34.791204214506635 -56.484567903643836
rfingers 7.125020000000027
rthumb -7.927812153758337 -86.40834296382808
lclavicle 1.0628946911210003E-15 -1.8517937006038235E-15
lhumerus 20.712581890751252 -12.222616025481026 44.947108932070115
lradius 69.7138653620253
lwrist -22.655893168403306
lhand -44.54253591966814 -69.59179460014775
lfingers 7.125020000000021
lthumb -17.36807709279201 -40.31423037364517
rfemur -24.64289045353853 -2.0942815816778273 17.180484058152572
rtibia 53.82277680654367
rfoot -29.07694317301956 -17.033759684598454
rtoes -18.308067401054224
lfemur -26.289537321808076 2.495881859766728 -18.02008346515891
ltibia 54.19594763993569
lfoot -31.07214845848758 -3.472438079411451
ltoes -19.99954753244231
164
root 0 0 0 1.211727396738182 -3.6307782328874665 1.803604918338799
lowerback 11.908604092945227 0.8754270726477783 -0.04743969318782934
upperback -4.285581634866737 1.1080525477194207 -0.5626819628625683
thorax -11.355550455698108 0.5073141885050059 -0.8196937925330336
lowerneck -6.177230936931343 1.535198744100105 4.5002692464201575
upperneck 18.295276183887523 3.0003412043812623 -8.146229129897396
head 6.74061868443698 1.0967964829930166 -3.1449565452790447
rclavicle 1.1415252205643068E-15 -1.2097509621386445E-15
rhumerus 19.283805307115596 13.897797114976669 -48.434728691579494
rradius 71.66684657950984
rwrist 26.699610082235935
rhand -34.805864907668095 -56.50571326572698
rfingers 7.125020000000027
rthumb -7.942116907529839 -86.42946819160672
lclavicle 1.0312301946429777E-15 -1.85911914194256E-15
lhumerus 20.714404091883736 -12.217876648640043 44.9519899813207
lradius 69.7141339392722
lwrist -22.655458487481376
lhand -44.54838119384808 -69.62441696164922
lfingers 7.125020000000021
lthumb -17.373797271232498 -40.34640203128159
rfemur -24.641811064018942 -2.094801251423907 17.180862014821887
rtibia 53.82153217134708
rfoot -29.08001698515733 -17.035261401249066
rtoes -18.311408185962453
lfemur -26.29308758563241 2.493633968044258 -18.02041844568252
ltibia 54.19732489176471
lfoot -31.07480199299553 -3.4752094873791797
ltoes -19.989897667689867
165
root 0 0 0 1.2125769434348954 -3.6301826458928566 1.8035346339488258
lowerback 11.908620091432239 0.875531897617374 -0.047602366981683825
upperback -4.286061988212381 1.108140479266262 -0.5628207367300746
thorax -11.356101433901989 0.5073652951575232 -0.8197871798331335
lowerneck -6.180206432871637 1.5357105775013533 4.4997259937232785
upperneck 18.297020412489942 3.000938836049458 -8.144734682849752
head 6.741678663281844 1.0970661006762743 -3.1443290403606707
rclavicle 1.1191118456183768E-15 -1.202705117253543E-15
rhumerus 19.281864777674308 13.895038210241196 -48.43273328545231
rradius 71.66535453151933
rwrist 26.70218458243276
rhand -34.80626866412986 -56.5074915743429
rfingers 7.125020000000027
rthumb -7.942581570006157 -86.43125786088021
lclavicle 9.916052282896898E-16 -1.846228438013833E-15
lhumerus 20.715123278322203 -12.217016555143642 44.953936049325705
lradius 69.71417165572586
lwrist -22.655233819698722
lhand -44.550244900792215 -69.63136070082187
lfingers 7.125020000000021
lthumb -17.375545058452776 -40.35257945372116
rfemur -24.64214517292978 -2.094576710970724 17.18012010129088
rtibia 53.82038280631622
rfoot -29.07865371181228 -17.034288724639428
rtoes -18.311065895910744
lfemur -26.29164337877589 2.493845248716191 -18.020112189417365
ltibia 54.1965726546122
lfoot -31.073811936821656 -3.474001178172375
ltoes -19.991557308812045
166
root 0 0 0 1.2138496754241674 -3.6292783995751563 1.803416941597082
lowerback 11.908614653732203 0.8756855647791721 -0.04782871704416222
upperback -4.286772741368137 1.1082715200891633 -0.5630262105437719
thorax -11.356898487161144 0.5074401156856034 -0.8199325656031778
lowerneck -6.18453915116881 1.5364245009822395 4.498915082502231
upperneck 18.299505966244553 3.0017608399280635 -8.142509580573885
head 6.743203654581788 1.0974387973694397 -3.1434018424144954
rclavicle 1.120272458439143E-15 -1.2039262918415728E-15
rhumerus 19.280444808000603 13.893626789084415 -48.43352084378738
rradius 71.66451438226717
rwrist 26.70248460390513
rhand -34.80830332716668 -56.51006166252194
rfingers 7.125020000000027
rthumb -7.944559147706455 -86.43367992597226
lclavicle 9.925302885928784E-16 -1.8475449189324234E-15
lhumerus 20.714842249044782 -12.216181120334745 44.95470119811118
lradius 69.7137425426656
lwrist -22.655121521693697
lhand -44.55079287710772 -69.63493953576676
lfingers 7.125020000000021
lthumb -17.376086002709865 -40.35625767140978
rfemur -24.64219436489497 -2.0945374630663105 17.180081767255096
rtibia 53.82010936442897
rfoot -29.078404081092813 -17.034289011884667
rtoes -18.310965237589123
lfemur -26.292067290875117 2.49357214470991 -18.020130360033978
ltibia 54.19640792264319
lfoot -31.073821706379483 -3.4743043533071276
ltoes -19.989980984698875
167
root 0 0 0 1.2150912785302972 -3.6284084197952415 1.8032989587712895
lowerback 11.90859735271766 0.8758359517367559 -0.04804938806051784
upperback -4.287479911431596 1.1083994108867883 -0.5632281090370642
thorax -11.357684477957957 0.5075130826229601 -0.820076576992647
lowerneck -6.188776977031194 1.5371333374679457 4.498121989968466
upperneck 18.30194730165636 3.0025802312797376 -8.14032496682852
head 6.744698056880052 1.0978105107768097 -3.142490581078002
rclavicle 1.1184190979232729E-15 -1.2038357549008885E-15
rhumerus 19.279460902779178 13.892625414196747 -48.43400370372098
rradius 71.66397652784332
rwrist 26.702731251392493
rhand -34.809804795238534 -56.512035233207854
rfingers 7.125020000000027
rthumb -7.946016081470013 -86.43558637811122
lclavicle 9.912436778406134E-16 -1.847265786273853E-15
lhumerus 20.714552324932935 -12.215383329229205 44.95547552543437
lradius 69.71336280580496
lwrist -22.655011951770582
lhand -44.55128163959577 -69.63805560217322
lfingers 7.125020000000021
lthumb -17.37655835145766 -40.359365362498856
rfemur -24.642105849852214 -2.0944932387475617 17.180077170998985
rtibia 53.819970890377625
rfoot -29.078227360473257 -17.034294172946918
rtoes -18.31093533110083
lfemur -26.29248817799336 2.493351481147589 -18.020148618403404
ltibia 54.19641643808825
lfoot -31.07388466410037 -3.4745798197957263
ltoes -19.988474111122272
